<svg width="172" height="63" fill="none" xmlns="http://www.w3.org/2000/svg"><path fill="#fff" d="M.004 0H16.04v62.061H.004zM120.734.052h19.904c17.323 0 31.366 14.043 31.366 31.366v1.819c0 15.606-12.651 28.257-28.257 28.257h-22.871v-15.47h20.239c8.259 0 14.951-6.7 14.941-14.96.01-8.453-6.84-15.312-15.294-15.312h-20.028V.052ZM38.363.68c.334-.429.849-.68 1.393-.68h18.6L37.798 29.176l4.277 11.846a7.842 7.842 0 0 0 7.375 5.18h9.153v15.84H48.448C36.708 60.393 35.005 59 28.014 48.057l-8.83-22.765L38.363.68Z"/><path d="M58.602 46.2h10.632a7.842 7.842 0 0 0 7.361-5.139l10.246-27.905C90.79 1.646 97.046.054 103.761.052h16.972v15.7h-11.602a9.713 9.713 0 0 0-9.119 6.369l-8.95 24.397c-4.759 13.615-10.91 15.402-20.68 15.524h-11.78V46.2Z" fill="#fff"/></svg>