<svg width="135" height="31" fill="none" xmlns="http://www.w3.org/2000/svg"><path d="M10.182 10.426C5.576 10.426.84 14.173.84 20.733c0 5.996 4.164 10.232 9.342 10.232 4.274 0 6.179-2.913 6.179-2.913v1.27c0 .6.559 1.27 1.25 1.27h3.09V10.873h-4.34v2.502s-1.921-2.95-6.18-2.95Zm.773 4.032c3.792 0 5.78 3.385 5.78 6.273 0 3.217-2.36 6.271-5.772 6.271-2.851 0-5.708-2.344-5.708-6.313 0-3.583 2.458-6.231 5.7-6.231ZM26.739 30.593c-.667 0-1.25-.485-1.25-1.27V10.877h4.34v2.44c.983-1.5 2.904-2.894 5.853-2.894 4.82 0 7.387 3.901 7.387 7.55v12.621h-3.016c-.79 0-1.324-.672-1.324-1.344V18.942c0-2.022-1.22-4.478-4.042-4.478-3.045 0-4.859 2.922-4.859 5.673v10.456h-3.09ZM55.71 10.426c-4.607 0-9.343 3.748-9.343 10.307 0 5.996 4.164 10.232 9.342 10.232 4.274 0 6.18-2.913 6.18-2.913v1.27c0 .6.558 1.27 1.25 1.27h3.09V1.015h-4.34v12.36s-1.922-2.95-6.18-2.95Zm.772 4.032c3.792 0 5.78 3.386 5.78 6.273 0 3.217-2.36 6.272-5.772 6.272-2.851 0-5.707-2.345-5.707-6.314 0-3.583 2.458-6.231 5.7-6.231ZM72.258 30.586c-.666 0-1.25-.486-1.25-1.27V10.87h4.34v3.286c.747-1.841 2.359-3.51 5.222-3.51.799 0 1.545.149 1.545.149v4.556s-.932-.374-2.06-.374c-3.045 0-4.707 2.922-4.707 5.673v9.937h-3.09ZM108.465 30.588c-.666 0-1.25-.485-1.25-1.27V10.872h4.34v19.717h-3.09ZM124.276 10.426c-4.606 0-9.342 3.748-9.342 10.307 0 5.996 4.164 10.232 9.342 10.232 4.274 0 6.179-2.913 6.179-2.913v1.27c0 .6.558 1.27 1.25 1.27h3.09V1.015h-4.34v12.36s-1.921-2.95-6.179-2.95Zm.773 4.032c3.791 0 5.78 3.386 5.78 6.273 0 3.217-2.361 6.272-5.772 6.272-2.852 0-5.708-2.345-5.708-6.314 0-3.583 2.458-6.231 5.7-6.231ZM109.35 6.62c1.585 0 2.87-1.304 2.87-2.913 0-1.61-1.285-2.914-2.87-2.914-1.585 0-2.87 1.304-2.87 2.914 0 1.609 1.285 2.913 2.87 2.913ZM93.553 10.422c-4.824 0-10.123 3.656-10.123 10.278 0 6.035 4.514 10.268 10.112 10.268 6.9 0 10.269-5.632 10.269-10.23 0-5.642-4.338-10.316-10.258-10.316Zm.016 4.115c3.335 0 5.823 2.73 5.823 6.175 0 3.506-2.64 6.212-5.813 6.212-2.946 0-5.808-2.434-5.808-6.152 0-3.781 2.722-6.235 5.798-6.235Z" fill="#000"/></svg>