<svg width="135" height="76" fill="none" xmlns="http://www.w3.org/2000/svg"><path d="m100.108 23.119 11.069-19.174a2.249 2.249 0 0 0-.813-3.065 2.22 2.22 0 0 0-3.051.813L96.099 21.114c-8.555-3.907-18.186-6.086-28.543-6.086-10.356 0-19.987 2.179-28.543 6.086L27.8 1.694A2.236 2.236 0 0 0 24.734.88a2.236 2.236 0 0 0-.814 3.065L34.99 23.119C15.903 33.46 2.975 52.78.84 75.396h133.433c-2.135-22.616-15.063-41.935-34.165-52.277Zm-63.186 33.54a5.595 5.595 0 0 1-5.593-5.593 5.595 5.595 0 0 1 5.593-5.592 5.595 5.595 0 0 1 5.592 5.592c.015 3.08-2.498 5.592-5.592 5.592Zm61.255 0a5.595 5.595 0 0 1-5.593-5.593 5.595 5.595 0 0 1 5.593-5.592 5.595 5.595 0 0 1 5.592 5.592c.015 3.08-2.498 5.592-5.592 5.592Z" fill="#33DF85"/></svg>