<svg width="43" height="53" fill="none" xmlns="http://www.w3.org/2000/svg"><path d="M31.089.813h.368c.296 3.653-1.099 6.383-2.794 8.36-1.663 1.964-3.94 3.868-7.623 3.579-.246-3.601 1.151-6.13 2.844-8.102 1.57-1.838 4.447-3.473 7.205-3.838ZM42.238 38.84v.103c-1.035 3.135-2.511 5.822-4.313 8.316-1.645 2.263-3.66 5.31-7.26 5.31-3.11 0-5.175-2-8.363-2.055-3.371-.055-5.226 1.672-8.308 2.107h-1.051c-2.264-.328-4.09-2.12-5.422-3.736C3.597 44.112.564 37.947 0 30.057v-2.318C.239 22.092 2.983 17.5 6.63 15.276c1.924-1.183 4.57-2.19 7.516-1.74 1.263.195 2.553.628 3.683 1.055 1.072.412 2.412 1.142 3.681 1.104.86-.025 1.716-.474 2.583-.79 2.539-.917 5.027-1.968 8.308-1.474 3.943.596 6.741 2.348 8.47 5.05-3.335 2.123-5.972 5.322-5.522 10.784.4 4.962 3.286 7.865 6.89 9.576Z" fill="#fff"/></svg>