<svg width="664" height="344" fill="none" xmlns="http://www.w3.org/2000/svg"><g filter="url('#filter0_d_809_15518')"><g filter="url('#filter1_d_809_15518')"><rect x="62" y="62" width="525" height="205" rx="30.17" fill="#039BE5"/><rect x="62" y="62" width="525" height="205" rx="30.17" stroke="#DFEAF2"/></g></g><g clip-path="url('#clip0_809_15518')"><path d="M244.064 193.729h-7.482v-57.784h33.982v7.099h-26.499v18.972h23.902v6.935h-23.902v24.778h-.001Zm40.57-49.468a5.329 5.329 0 0 1-6.69.667 5.237 5.237 0 0 1-1.961-6.383c.964-2.319 3.445-3.64 5.925-3.153 2.48.487 4.268 2.646 4.269 5.155a5.024 5.024 0 0 1-1.55 3.714h.007Zm0 49.468h-7.483v-39.544h7.483v39.544Zm16.419 0h-7.482v-39.544h7.152v6.456h.324a10.152 10.152 0 0 1 4.675-5.327 13.44 13.44 0 0 1 6.872-2.1 14.345 14.345 0 0 1 5.609.971l-2.846 6.935a11.374 11.374 0 0 0-3.982-.567 9.808 9.808 0 0 0-7.197 3.19c-2.087 2.127-3.131 4.912-3.131 8.354l.006 21.632Zm37.654 1.261c-6.018 0-10.909-1.99-14.673-5.97-3.764-3.98-5.649-9.001-5.653-15.062a21.675 21.675 0 0 1 5.488-14.849 17.847 17.847 0 0 1 14.025-6.217c5.907 0 10.637 1.91 14.19 5.731 3.552 3.821 5.327 8.932 5.322 15.334l-.083 1.374H325.85c.216 3.981 1.558 7.133 4.027 9.458a12.249 12.249 0 0 0 8.656 3.467c5.366 0 8.997-2.26 10.894-6.777l6.669 2.742a17.757 17.757 0 0 1-6.421 7.705c-2.985 2.043-6.642 3.064-10.97 3.064h.002Zm10.734-25.85c-.161-2.261-1.204-4.413-3.131-6.456-1.927-2.043-4.792-3.043-8.594-3.001-2.638-.046-5.2.874-7.197 2.585a13.176 13.176 0 0 0-4.186 6.935l23.108-.063Zm34.999 25.85a17.03 17.03 0 0 1-8.143-1.891 13.764 13.764 0 0 1-5.405-4.842h-.324v5.472h-7.159v-57.784h7.483v18.24l-.324 5.485h.324a13.757 13.757 0 0 1 5.405-4.842 17.038 17.038 0 0 1 8.143-1.936c5.149 0 9.596 2.018 13.339 6.053 3.743 4.035 5.613 9.039 5.609 15.012-.005 5.973-1.87 10.977-5.609 15.012s-8.186 6.042-13.339 6.021Zm-1.22-6.778a11.937 11.937 0 0 0 8.944-3.915c2.494-2.61 3.741-6.067 3.741-10.372 0-4.304-1.247-7.761-3.741-10.371a12.244 12.244 0 0 0-8.955-3.912 12.243 12.243 0 0 0-8.97 3.874c-2.465 2.581-3.697 6.05-3.697 10.409 0 4.359 1.245 7.839 3.735 10.441a11.959 11.959 0 0 0 8.969 3.878l-.026-.032Zm39.217 6.778c-4.235 0-7.771-1.21-10.608-3.631-2.837-2.421-4.26-5.622-4.268-9.603 0-4.304 1.681-7.679 5.043-10.126 3.362-2.446 7.508-3.669 12.437-3.669 4.391 0 7.991.807 10.798 2.421v-1.128a8.797 8.797 0 0 0-3.011-6.98 10.846 10.846 0 0 0-7.387-2.591 11.533 11.533 0 0 0-5.894 1.532 7.922 7.922 0 0 0-3.621 4.199l-6.828-2.907c.923-2.375 2.74-4.577 5.458-6.607 2.719-2.03 6.289-3.039 10.735-3.027 5.081 0 9.316 1.472 12.704 4.414 3.387 2.942 5.068 7.112 5.043 12.509v23.933h-7.178v-5.485h-.324c-2.985 4.497-7.349 6.738-13.091 6.738l-.008.008Zm1.219-6.778a12.224 12.224 0 0 0 8.423-3.398 10.616 10.616 0 0 0 3.811-8.108c-2.118-1.724-5.293-2.585-9.528-2.585-3.633 0-6.371.779-8.213 2.339a7.006 7.006 0 0 0-2.763 5.485 5.273 5.273 0 0 0 2.542 4.603 10.108 10.108 0 0 0 5.729 1.696v-.032h-.001Zm41.382 6.778c-4.446 0-8.117-1.076-11.014-3.228a19.122 19.122 0 0 1-6.352-8.07l6.67-2.743c2.117 4.952 5.717 7.427 10.798 7.427a9.923 9.923 0 0 0 5.717-1.532 4.69 4.69 0 0 0 2.236-4.035c0-2.581-1.817-4.329-5.459-5.246l-8.048-1.935a19.203 19.203 0 0 1-7.234-3.67 8.802 8.802 0 0 1-3.418-7.301c0-3.497 1.559-6.334 4.675-8.512a18.875 18.875 0 0 1 11.097-3.265 18.6 18.6 0 0 1 9.426 2.389 13.459 13.459 0 0 1 5.933 6.822l-6.498 2.635c-1.461-3.496-4.497-5.245-9.109-5.245a10.688 10.688 0 0 0-5.608 1.374 4.176 4.176 0 0 0-2.274 3.714c0 2.261 1.761 3.795 5.284 4.602l7.883 1.86c3.739.841 6.504 2.312 8.295 4.414a10.67 10.67 0 0 1 2.681 7.099 10.972 10.972 0 0 1-4.389 8.877c-2.926 2.379-6.693 3.569-11.3 3.569h.008Zm40.245 0c-6.017 0-10.908-1.99-14.672-5.97-3.765-3.98-5.649-9.013-5.654-15.095a21.679 21.679 0 0 1 5.488-14.848 17.879 17.879 0 0 1 14.044-6.185c5.928 0 10.659 1.911 14.19 5.732 3.532 3.82 5.306 8.931 5.323 15.333l-.083 1.375H492.42c.216 3.98 1.558 7.132 4.027 9.457a12.253 12.253 0 0 0 8.677 3.455c5.365 0 8.996-2.26 10.893-6.778l6.669 2.743a17.755 17.755 0 0 1-6.421 7.704c-2.985 2.051-6.646 3.077-10.982 3.077Zm10.735-25.85c-.161-2.261-1.205-4.413-3.131-6.456-1.927-2.043-4.788-3.043-8.582-3.001a10.778 10.778 0 0 0-7.196 2.585 13.163 13.163 0 0 0-4.186 6.935l23.095-.063Z" fill="#fff"/><path d="m124.711 198.166 13.759-88.041a2.54 2.54 0 0 1 4.751-.807l14.229 26.539 5.672-10.799a2.54 2.54 0 0 1 4.497 0l38.399 73.107-81.307.001Z" fill="#FFA000"/><path d="m172.244 163.87-14.8-28.025-32.733 62.321 47.533-34.296Z" fill="#F57C00"/><path d="m206.019 198.165-10.539-65.212a2.543 2.543 0 0 0-1.732-1.995 2.537 2.537 0 0 0-2.568.623l-66.469 66.583 36.779 20.625a7.62 7.62 0 0 0 7.432 0l37.097-20.625v.001Z" fill="#FFCA28"/><path d="M195.478 132.954a2.544 2.544 0 0 0-1.733-1.996 2.538 2.538 0 0 0-2.568.623l-13.192 13.226-10.374-19.75a2.542 2.542 0 0 0-4.497 0l-5.672 10.799-14.23-26.539a2.542 2.542 0 0 0-4.751.813l-13.753 88.035h-.044l.044.051.362.178 66.088-66.164a2.542 2.542 0 0 1 4.307 1.372l10.449 64.626.102-.063-10.538-65.211Zm-70.649 65.09 13.638-87.291a2.54 2.54 0 0 1 4.752-.813l14.229 26.539 5.671-10.798a2.54 2.54 0 0 1 4.498 0l10.163 19.329-52.951 53.034Z" fill="#fff" fill-opacity=".2"/><path opacity=".2" d="M168.922 218.169a7.62 7.62 0 0 1-7.432 0l-36.69-20.568-.089.565 36.779 20.62a7.625 7.625 0 0 0 7.432 0l37.097-20.62-.096-.584-37.001 20.587Z" fill="#A52714"/><path d="M195.377 132.967a2.528 2.528 0 0 0-4.285-1.371l-13.147 13.219-10.337-19.74a2.53 2.53 0 0 0-4.482 0l-5.652 10.794-14.179-26.528a2.53 2.53 0 0 0-4.735.813l-13.705 87.996 36.651 20.61a7.575 7.575 0 0 0 7.406 0l36.967-20.61-10.502-65.183Z" fill="url('#paint0_linear_809_15518')"/></g><defs><filter id="filter0_d_809_15518" x=".5" y=".5" width="663.26" height="343.26" filterUnits="userSpaceOnUse" color-interpolation-filters="sRGB"><feFlood flood-opacity="0" result="BackgroundImageFix"/><feColorMatrix in="SourceAlpha" values="0 0 0 0 0 0 0 0 0 0 0 0 0 0 0 0 0 0 127 0" result="hardAlpha"/><feOffset dx="7.63" dy="7.63"/><feGaussianBlur stdDeviation="34.315"/><feComposite in2="hardAlpha" operator="out"/><feColorMatrix values="0 0 0 0 0 0 0 0 0 0 0 0 0 0 0 0 0 0 0.05 0"/><feBlend in2="BackgroundImageFix" result="effect1_dropShadow_809_15518"/><feBlend in="SourceGraphic" in2="effect1_dropShadow_809_15518" result="shape"/></filter><filter id="filter1_d_809_15518" x=".492" y=".492" width="663.267" height="343.267" filterUnits="userSpaceOnUse" color-interpolation-filters="sRGB"><feFlood flood-opacity="0" result="BackgroundImageFix"/><feColorMatrix in="SourceAlpha" values="0 0 0 0 0 0 0 0 0 0 0 0 0 0 0 0 0 0 127 0" result="hardAlpha"/><feOffset dx="7.626" dy="7.626"/><feGaussianBlur stdDeviation="34.317"/><feColorMatrix values="0 0 0 0 0 0 0 0 0 0 0 0 0 0 0 0 0 0 0.05 0"/><feBlend in2="BackgroundImageFix" result="effect1_dropShadow_809_15518"/><feBlend in="SourceGraphic" in2="effect1_dropShadow_809_15518" result="shape"/></filter><linearGradient id="paint0_linear_809_15518" x1="-157.916" y1="2009.59" x2="9953.09" y2="7343.03" gradientUnits="userSpaceOnUse"><stop stop-color="#fff" stop-opacity=".1"/><stop offset=".14" stop-color="#fff" stop-opacity=".08"/><stop offset=".61" stop-color="#fff" stop-opacity=".02"/><stop offset="1" stop-color="#fff" stop-opacity="0"/></linearGradient><clipPath id="clip0_809_15518"><path fill="#fff" transform="translate(124 108)" d="M0 0h400v112.58H0z"/></clipPath></defs></svg>