<svg width="37" height="37" fill="none" xmlns="http://www.w3.org/2000/svg"><path d="M18.587 36.369c9.82 0 17.782-7.961 17.782-17.782S28.408.805 18.587.805.805 8.766.805 18.587c0 9.82 7.961 17.782 17.782 17.782Z" stroke="#5C5C5C" stroke-width=".391"/><path d="m18.589 20.135-4.433-5.171a.756.756 0 0 0-1.184 0c-.327.381-.327 1 0 1.382l5.025 5.862a.756.756 0 0 0 1.184 0l5.025-5.862c.327-.382.327-1 0-1.382a.756.756 0 0 0-1.185 0l-4.432 5.171Z" fill="#565656"/><mask id="mask0_809_15124" style="mask-type:luminance" maskUnits="userSpaceOnUse" x="12" y="14" width="13" height="9"><path d="m18.589 20.135-4.433-5.171a.756.756 0 0 0-1.184 0c-.327.381-.327 1 0 1.382l5.025 5.862a.756.756 0 0 0 1.184 0l5.025-5.862c.327-.382.327-1 0-1.382a.756.756 0 0 0-1.185 0l-4.432 5.171Z" fill="#fff"/></mask></svg>