<svg width="24" height="24" fill="none" xmlns="http://www.w3.org/2000/svg"><g opacity=".3" fill="#000"><path opacity=".01" d="M24 24H0V0h24z"/><path d="m3.241 7.29 8.52 4.63c.15.08.33.08.48 0l8.52-4.63a.44.44 0 0 0-.05-.81L12.191 3a.5.5 0 0 0-.38 0l-8.52 3.48a.44.44 0 0 0-.05.81Z"/><path d="m20.708 10.66-1.83-.78-6.64 3.61a.51.51 0 0 1-.48 0l-6.64-3.61-1.83.78a.48.48 0 0 0 0 .85l8.52 4.9a.46.46 0 0 0 .48 0l8.52-4.9a.48.48 0 0 0-.1-.85Z"/><path d="m20.712 15.1-1.56-.68-6.91 3.76a.51.51 0 0 1-.48 0l-6.91-3.76-1.56.68a.49.49 0 0 0 0 .87l8.52 5c.15.08.33.08.48 0l8.52-5a.49.49 0 0 0-.1-.87Z"/></g></svg>