<svg width="54" height="57" fill="none" xmlns="http://www.w3.org/2000/svg"><g filter="url('#filter0_i_809_15550')"><path d="M.793 30.143 19.92 10.978V7.386l4.782-4.791v26.352h-4.782v-11.38L7.368 30.143l12.551 11.978V28.946h4.782v17.967l2.39 2.395 2.391-2.395V28.946h4.782V42.12l12.551-11.978-12.551-12.577v11.38h-4.782V.198l4.782 4.791v5.99L53.39 30.143 27.09 56.495.794 30.143Z" fill="#000"/></g><path d="m33.996 11.247 18.858 18.896L27.093 55.96 1.328 30.143l18.859-18.896.11-.111V7.542l4.025-4.033v25.057h-4.024V16.651l-.646.647L7.1 29.875l-.274.275.28.268 12.552 11.978.64.61V29.325h4.024V47.07l.111.11 2.39 2.397.268.268.268-.268 2.39-2.396.112-.111V29.325h4.024v13.681l.64-.61 12.551-11.978.281-.268-.274-.275L34.53 17.298l-.646-.647v11.915h-4.024V1.114l4.024 4.033v5.989l.111.11Z" stroke="#000" stroke-width=".758"/><defs><filter id="filter0_i_809_15550" x=".793" y=".198" width="52.598" height="59.729" filterUnits="userSpaceOnUse" color-interpolation-filters="sRGB"><feFlood flood-opacity="0" result="BackgroundImageFix"/><feBlend in="SourceGraphic" in2="BackgroundImageFix" result="shape"/><feColorMatrix in="SourceAlpha" values="0 0 0 0 0 0 0 0 0 0 0 0 0 0 0 0 0 0 127 0" result="hardAlpha"/><feOffset dy="3.433"/><feGaussianBlur stdDeviation="1.716"/><feComposite in2="hardAlpha" operator="arithmetic" k2="-1" k3="1"/><feColorMatrix values="0 0 0 0 0 0 0 0 0 0 0 0 0 0 0 0 0 0 0.25 0"/><feBlend in2="shape" result="effect1_innerShadow_809_15550"/></filter></defs></svg>