<svg width="335" height="344" fill="none" xmlns="http://www.w3.org/2000/svg"><g filter="url('#filter0_d_809_15538')"><g filter="url('#filter1_d_809_15538')"><rect x="62" y="62" width="227.411" height="205" rx="30.225" fill="#fff"/></g><path d="M172.723 87.161c1.44-.12 2.84-.16 4.28-.16 26.039.96 46.959 21.84 47.999 47.88V174.2c-.04 7.12-5.84 12.84-12.92 12.8-6.48-1-11.44-6.28-12.04-12.8v-39.319c-1.08-13.72-13.08-24-26.799-22.92-.16 0-.32.04-.48.04" fill="#FBBC04"/><path d="M224.999 174.48c0 6.88-5.6 12.48-12.48 12.48-6.88 0-12.48-5.6-12.48-12.48 0-6.88 5.6-12.48 12.48-12.48 6.88 0 12.48 5.6 12.48 12.48Z" fill="#4285F4"/><path d="M173.439 186.56c7.08.08 12.88-5.56 12.96-12.64v-.08c-.2-6.88-5.96-12.32-12.84-12.12h-.28c-13.64-1.04-23.919-12.879-22.96-26.559v-.2c1-12.32 10.8-22.04 23.12-22.96 6.88.28 12.68-5.08 12.96-11.96v-.2c-.08-7.08-5.88-12.8-12.96-12.72h-.88c-26.519 1.24-47.399 23-47.559 49.56v.2c0 31.159 27.319 49.719 47.679 49.719h.76v-.04Z" fill="#EA4335"/><path fill-rule="evenodd" clip-rule="evenodd" d="M112 238.025 122.95 209h4.225l10.95 29.025H134l-2.8-7.875H119l-2.875 7.875H112Zm8.225-11.35h9.65l-4.75-13.1h-.15l-4.75 13.1Zm28.15 12c-2.575 0-4.775-1.025-6.65-3.05s-2.8-4.55-2.8-7.55.925-5.525 2.8-7.55c1.875-2.025 4.075-3.05 6.65-3.05 1.525 0 2.875.325 4.075.975 1.2.65 2.1 1.45 2.7 2.425h.15l-.15-2.75V209h3.725v29.025H155.3v-2.75h-.15c-.6.975-1.5 1.775-2.7 2.425-1.2.65-2.55.975-4.075.975Zm.625-3.425c1.75 0 3.25-.65 4.475-1.95 1.225-1.3 1.85-3.05 1.85-5.225s-.625-3.925-1.85-5.225c-1.225-1.3-2.725-1.95-4.475-1.95-1.725 0-3.225.65-4.45 1.975-1.25 1.3-1.875 3.05-1.875 5.2 0 2.15.625 3.9 1.875 5.2 1.225 1.325 2.725 1.975 4.45 1.975Zm14.9 2.775V209h3.725l10.1 17.675h.15l10.1-17.675h3.725v29.025h-3.725V220.8l.15-4.875h-.15L178.9 231.85h-2.2l-9.075-15.925h-.15l.15 4.875v17.225H163.9Zm34.55-17.475c1.925-2.025 4.375-3.05 7.35-3.05 2.975 0 5.425 1 7.35 3.025 1.925 2.025 2.875 4.525 2.875 7.55 0 3.025-.95 5.55-2.875 7.55-1.925 2.025-4.375 3.025-7.35 3.025-2.975 0-5.425-1-7.35-3.025-1.925-2.025-2.875-4.525-2.875-7.55 0-3.025.95-5.525 2.875-7.525Zm2.75 12.775c1.3 1.3 2.825 1.95 4.575 1.95s3.275-.65 4.55-1.975c1.275-1.3 1.925-3.05 1.925-5.2 0-2.15-.65-3.9-1.925-5.2-1.275-1.3-2.8-1.975-4.55-1.975s-3.275.65-4.55 1.975c-1.275 1.3-1.925 3.05-1.925 5.2 0 2.15.65 3.9 1.9 5.225Zm28.525 5.35c-1.525 0-2.875-.325-4.075-.975-1.2-.65-2.1-1.45-2.7-2.425h-.15v2.75h-3.575V209h3.725v9.15l-.15 2.75h.15c.6-.975 1.5-1.775 2.7-2.425 1.2-.65 2.55-.975 4.075-.975 2.575 0 4.775 1.025 6.65 3.05s2.8 4.55 2.8 7.55-.925 5.525-2.8 7.55c-1.875 2-4.075 3.025-6.65 3.025Zm-.6-3.425c1.725 0 3.225-.65 4.45-1.975 1.25-1.3 1.875-3.05 1.875-5.2 0-2.15-.625-3.9-1.875-5.2-1.25-1.3-2.725-1.975-4.45-1.975-1.75 0-3.25.65-4.475 1.95-1.225 1.3-1.85 3.05-1.85 5.225s.625 3.925 1.85 5.225c1.225 1.3 2.725 1.95 4.475 1.95Z" fill="#5F6368"/></g><defs><filter id="filter0_d_809_15538" x="1" y="1" width="364.67" height="342.26" filterUnits="userSpaceOnUse" color-interpolation-filters="sRGB"><feFlood flood-opacity="0" result="BackgroundImageFix"/><feColorMatrix in="SourceAlpha" values="0 0 0 0 0 0 0 0 0 0 0 0 0 0 0 0 0 0 127 0" result="hardAlpha"/><feOffset dx="7.63" dy="7.63"/><feGaussianBlur stdDeviation="34.315"/><feComposite in2="hardAlpha" operator="out"/><feColorMatrix values="0 0 0 0 0 0 0 0 0 0 0 0 0 0 0 0 0 0 0.05 0"/><feBlend in2="BackgroundImageFix" result="effect1_dropShadow_809_15538"/><feBlend in="SourceGraphic" in2="effect1_dropShadow_809_15538" result="shape"/></filter><filter id="filter1_d_809_15538" x=".882" y=".882" width="364.926" height="342.516" filterUnits="userSpaceOnUse" color-interpolation-filters="sRGB"><feFlood flood-opacity="0" result="BackgroundImageFix"/><feColorMatrix in="SourceAlpha" values="0 0 0 0 0 0 0 0 0 0 0 0 0 0 0 0 0 0 127 0" result="hardAlpha"/><feOffset dx="7.64" dy="7.64"/><feGaussianBlur stdDeviation="34.379"/><feColorMatrix values="0 0 0 0 0 0 0 0 0 0 0 0 0 0 0 0 0 0 0.05 0"/><feBlend in2="BackgroundImageFix" result="effect1_dropShadow_809_15538"/><feBlend in="SourceGraphic" in2="effect1_dropShadow_809_15538" result="shape"/></filter></defs></svg>