<svg width="62" height="31" fill="none" xmlns="http://www.w3.org/2000/svg"><path d="M1.156 30.482h4.99V9.077h-4.99v21.405ZM3.64 6.27c1.564 0 2.786-1.211 2.786-2.726C6.426 2.008 5.204.797 3.64.797 2.097.797.875 2.009.875 3.543c0 1.515 1.222 2.726 2.765 2.726ZM22.76.857c-8.437 0-13.727 5.796-13.727 15.065 0 9.27 5.29 15.045 13.727 15.045 8.416 0 13.707-5.775 13.707-15.045 0-9.269-5.29-15.065-13.707-15.065Zm0 4.443c5.15 0 8.436 4.12 8.436 10.622 0 6.482-3.286 10.602-8.436 10.602-5.17 0-8.437-4.12-8.437-10.602C14.322 9.42 17.59 5.3 22.76 5.3ZM38.57 22.283c.22 5.372 4.589 8.684 11.242 8.684 6.994 0 11.402-3.473 11.402-9.007 0-4.341-2.484-6.785-8.356-8.138l-3.327-.767c-3.546-.848-5.01-1.98-5.01-3.918 0-2.423 2.205-4.039 5.471-4.039 3.307 0 5.571 1.636 5.812 4.362h4.93C60.614 4.331 56.405.857 50.033.857c-6.293 0-10.762 3.494-10.762 8.664 0 4.16 2.525 6.745 7.855 7.977l3.748.888c3.647.869 5.13 2.08 5.13 4.18 0 2.424-2.425 4.16-5.912 4.16-3.527 0-6.192-1.756-6.512-4.442h-5.01Z" fill="#fff"/></svg>