<svg width="111" height="109" fill="none" xmlns="http://www.w3.org/2000/svg"><g filter="url('#filter0_i_809_15534')"><path fill-rule="evenodd" clip-rule="evenodd" d="M55.5 0C24.836 0 0 24.836 0 55.5c0 24.559 15.887 45.302 37.948 52.656 2.775.485 3.816-1.18 3.816-2.637 0-1.318-.07-5.688-.07-10.337-13.944 2.567-17.552-3.399-18.662-6.52-.624-1.596-3.33-6.522-5.688-7.84-1.943-1.04-4.718-3.608-.07-3.677 4.371-.07 7.493 4.024 8.534 5.689 4.994 8.394 12.973 6.035 16.164 4.578.486-3.607 1.942-6.035 3.538-7.423-12.349-1.387-25.252-6.174-25.252-27.403 0-6.035 2.15-11.03 5.688-14.915-.555-1.388-2.497-7.077.555-14.708 0 0 4.648-1.457 15.263 5.689 4.44-1.249 9.157-1.873 13.875-1.873 4.717 0 9.435.624 13.875 1.873 10.614-7.215 15.262-5.689 15.262-5.689 3.053 7.631 1.11 13.32.555 14.708 3.538 3.885 5.689 8.81 5.689 14.915 0 21.298-12.973 26.016-25.322 27.403 2.012 1.735 3.746 5.065 3.746 10.268 0 7.423-.069 13.389-.069 15.262 0 1.457 1.04 3.192 3.816 2.637C95.113 100.802 111 79.989 111 55.5 111 24.836 86.164 0 55.5 0Z" fill="#fff"/></g><path d="M27.28 94.54c2.84 1.593 7.182 2.433 13.86 1.304a719.127 719.127 0 0 0 .05 7.322c.01 1.077.019 1.898.019 2.353 0 .607-.218 1.221-.68 1.631-.446.395-1.203.675-2.445.466C16.263 100.323.555 79.797.555 55.5.555 25.143 25.143.555 55.5.555s54.945 24.588 54.945 54.945c0 24.231-15.711 44.828-37.397 52.118-1.24.24-1.992-.04-2.434-.439-.465-.418-.684-1.05-.684-1.66 0-.624.008-1.705.018-3.146l.017-2.4c.017-2.654.034-6.003.034-9.716 0-4.614-1.334-7.858-3.097-9.854 5.85-.758 11.83-2.353 16.445-6.224 4.942-4.145 8.228-10.822 8.228-21.593 0-6.116-2.113-11.09-5.604-15.034.689-1.877 2.25-7.472-.68-14.795l-.096-.24-.246-.081-.173.527.172-.527h-.001l-.003-.002-.007-.002-.019-.006a3.096 3.096 0 0 0-.26-.06 5.622 5.622 0 0 0-.746-.083c-.652-.033-1.612.006-2.9.276-2.542.53-6.355 1.957-11.597 5.49-4.418-1.218-9.099-1.825-13.776-1.825-4.678 0-9.36.607-13.778 1.825-5.242-3.499-9.054-4.924-11.593-5.464-1.288-.274-2.247-.32-2.898-.292a5.72 5.72 0 0 0-.744.075 3.1 3.1 0 0 0-.26.056l-.019.006-.007.002h-.002l-.002.001.165.53-.166-.53-.251.08-.098.244c-2.93 7.323-1.369 12.918-.68 14.795-3.49 3.947-5.604 8.987-5.604 15.034 0 10.736 3.27 17.413 8.193 21.567 4.599 3.88 10.566 5.49 16.416 6.25-1.307 1.489-2.397 3.682-2.845 6.627-1.584.687-4.131 1.485-6.85 1.235-2.844-.262-5.927-1.674-8.331-5.715l-.007-.01c-.54-.863-1.616-2.354-3.131-3.626-1.515-1.271-3.514-2.362-5.881-2.324-1.176.018-2.03.188-2.543.565-.28.205-.47.48-.528.814-.056.318.02.622.137.88.23.504.69.99 1.17 1.394.491.413 1.06.789 1.575 1.066.51.285 1.072.787 1.647 1.437a19.674 19.674 0 0 1 1.65 2.196c1.032 1.568 1.841 3.158 2.139 3.914.583 1.637 1.831 4.038 4.766 5.683Z" stroke="#fff" stroke-width="1.11"/><defs><filter id="filter0_i_809_15534" x="0" y="0" width="111" height="112.702" filterUnits="userSpaceOnUse" color-interpolation-filters="sRGB"><feFlood flood-opacity="0" result="BackgroundImageFix"/><feBlend in="SourceGraphic" in2="BackgroundImageFix" result="shape"/><feColorMatrix in="SourceAlpha" values="0 0 0 0 0 0 0 0 0 0 0 0 0 0 0 0 0 0 127 0" result="hardAlpha"/><feOffset dy="4.44"/><feGaussianBlur stdDeviation="2.775"/><feComposite in2="hardAlpha" operator="arithmetic" k2="-1" k3="1"/><feColorMatrix values="0 0 0 0 0 0 0 0 0 0 0 0 0 0 0 0 0 0 0.25 0"/><feBlend in2="shape" result="effect1_innerShadow_809_15534"/></filter></defs></svg>