<svg width="24" height="24" viewBox="0 0 24 24" fill="none" xmlns="http://www.w3.org/2000/svg">
<g opacity="0.300291">
<rect opacity="0.01" width="24" height="24" fill="black"/>
<path d="M9 11C11.2091 11 13 9.20914 13 7C13 4.79086 11.2091 3 9 3C6.79086 3 5 4.79086 5 7C5 9.20914 6.79086 11 9 11Z" fill="black"/>
<path d="M17 13C18.6569 13 20 11.6569 20 10C20 8.34315 18.6569 7 17 7C15.3431 7 14 8.34315 14 10C14 11.6569 15.3431 13 17 13Z" fill="black"/>
<path d="M21 19.9995C21.5523 19.9995 22 19.5518 22 18.9995C21.9984 17.0928 20.9125 15.3531 19.2003 14.514C17.4882 13.6749 15.4479 13.8826 13.94 15.0495C11.9371 13.0545 8.93071 12.46 6.31923 13.5427C3.70774 14.6253 2.00382 17.1725 2 19.9995C2 20.5518 2.44772 20.9995 3 20.9995H15C15.5523 20.9995 16 20.5518 16 19.9995" fill="black"/>
</g>
</svg>
