<svg width="172" height="63" viewBox="0 0 172 63" fill="none" xmlns="http://www.w3.org/2000/svg">
<rect x="0.00390625" width="16.0361" height="62.0606" fill="white"/>
<path d="M120.734 0.0517578H140.638C157.961 0.0517578 172.004 14.0947 172.004 31.4176V33.2367C172.004 48.8429 159.353 61.4942 143.747 61.4942H120.876V46.0232H141.115C149.374 46.0232 156.066 39.3231 156.056 31.0644C156.066 22.6106 149.216 15.7523 140.762 15.7523H120.734V0.0517578Z" fill="white"/>
<path d="M38.3629 0.680472C38.6975 0.251071 39.2115 0 39.7559 0H58.3556L37.7982 29.1759L42.0747 41.0221C43.1966 44.1299 46.1462 46.2011 49.4503 46.2011H58.6028V62.0429H48.4478C36.7071 60.3913 35.0048 58.9999 28.0141 48.0555L19.1836 25.2905L38.3629 0.680472Z" fill="white"/>
<path d="M58.6016 46.1998H69.2342C72.5226 46.1998 75.4617 44.1481 76.5952 41.0612L86.8414 13.1562C90.7895 1.64608 97.046 0.0540064 103.761 0.0517578H120.733V15.7523H109.131C105.056 15.7523 101.415 18.2954 100.012 22.1207L91.0624 46.5177C86.3034 60.1334 80.1511 61.9196 70.3814 62.0417H58.6016V46.1998Z" fill="white"/>
</svg>
