<svg width="135" height="76" viewBox="0 0 135 76" fill="none" xmlns="http://www.w3.org/2000/svg">
<path d="M100.108 23.1186L111.177 3.94473C111.802 2.86983 111.424 1.50441 110.364 0.879802C109.303 0.255206 107.923 0.618336 107.313 1.69324L96.0994 21.1141C87.5437 17.2067 77.9132 15.0278 67.5564 15.0278C57.1996 15.0278 47.569 17.2066 39.0134 21.1141L27.7995 1.69324C27.1749 0.618336 25.8095 0.255206 24.7346 0.879802C23.6597 1.50441 23.2965 2.86983 23.9212 3.94473L34.9897 23.1186C15.903 33.4609 2.97507 52.7801 0.839844 75.3964H134.273C132.138 52.7799 119.21 33.4607 100.108 23.1186ZM36.9217 56.6584C33.8277 56.6584 31.3293 54.1455 31.3293 51.066C31.3293 47.9721 33.8422 45.4736 36.9217 45.4736C40.0156 45.4736 42.5141 47.9866 42.5141 51.066C42.5286 54.1455 40.0156 56.6584 36.9217 56.6584ZM98.1767 56.6584C95.0827 56.6584 92.5843 54.1455 92.5843 51.066C92.5843 47.9721 95.0972 45.4736 98.1767 45.4736C101.271 45.4736 103.769 47.9866 103.769 51.066C103.784 54.1455 101.271 56.6584 98.1767 56.6584Z" fill="#33DF85"/>
</svg>
