<svg width="135" height="31" viewBox="0 0 135 31" fill="none" xmlns="http://www.w3.org/2000/svg">
<path d="M10.1819 10.4258C5.57599 10.4258 0.839844 14.1732 0.839844 20.7325C0.839844 26.729 5.004 30.9646 10.1819 30.9646C14.456 30.9646 16.3609 28.0518 16.3609 28.0518V29.3214C16.3609 29.9216 16.9197 30.5911 17.6114 30.5911H20.7009V10.8739H16.3609V13.3759C16.3609 13.3759 14.44 10.4258 10.1819 10.4258ZM10.955 14.4576C14.7467 14.4576 16.7356 17.8433 16.7356 20.7311C16.7356 23.9476 14.3741 27.0024 10.963 27.0024C8.11162 27.0024 5.25529 24.6577 5.25529 20.6886C5.25529 17.1059 7.71334 14.4576 10.955 14.4576Z" fill="black"/>
<path d="M26.7388 30.5932C26.072 30.5932 25.4883 30.1076 25.4883 29.3235V10.876H29.8283V13.316C30.8117 11.8151 32.733 10.4219 35.6821 10.4219C40.5023 10.4219 43.069 14.3231 43.069 17.9712V30.5932H40.053C39.2622 30.5932 38.729 29.921 38.729 29.2488V18.9421C38.729 16.92 37.5087 14.4642 34.6866 14.4642C31.6415 14.4642 29.8283 17.3861 29.8283 20.1371V30.5931L26.7388 30.5932Z" fill="black"/>
<path d="M55.7092 10.4261C51.1033 10.4261 46.3672 14.1736 46.3672 20.7329C46.3672 26.7294 50.5313 30.9649 55.7092 30.9649C59.9833 30.9649 61.8882 28.0521 61.8882 28.0521V29.3218C61.8882 29.9219 62.447 30.5914 63.1387 30.5914H66.2282V1.01562H61.8882V13.3762C61.8882 13.3762 59.9673 10.4261 55.7092 10.4261ZM56.4823 14.4579C60.2739 14.4579 62.2628 17.8436 62.2628 20.7314C62.2628 23.948 59.9014 27.0027 56.4903 27.0028C53.6389 27.0028 50.7826 24.658 50.7826 20.689C50.7826 17.1062 53.2406 14.4579 56.4823 14.4579Z" fill="black"/>
<path d="M72.2583 30.5858C71.5915 30.5858 71.0078 30.1002 71.0078 29.3161V10.8686H75.3478V14.1548C76.0948 12.3138 77.7068 10.6445 80.5705 10.6445C81.3688 10.6445 82.1153 10.7939 82.1153 10.7939V15.3498C82.1153 15.3498 81.1832 14.9763 80.0556 14.9763C77.0105 14.9763 75.3478 17.8983 75.3478 20.6493V30.5858H72.2583Z" fill="black"/>
<path d="M108.465 30.5883C107.799 30.5883 107.215 30.1027 107.215 29.3186V10.8711H111.555V30.5883L108.465 30.5883Z" fill="black"/>
<path d="M124.276 10.4261C119.67 10.4261 114.934 14.1736 114.934 20.7329C114.934 26.7294 119.098 30.9649 124.276 30.9649C128.55 30.9649 130.455 28.0521 130.455 28.0521V29.3218C130.455 29.9219 131.013 30.5914 131.705 30.5914H134.795V1.01562H130.455V13.3762C130.455 13.3762 128.534 10.4261 124.276 10.4261ZM125.049 14.4579C128.84 14.4579 130.829 17.8436 130.829 20.7314C130.829 23.948 128.468 27.0027 125.057 27.0028C122.205 27.0028 119.349 24.658 119.349 20.689C119.349 17.1062 121.807 14.4579 125.049 14.4579Z" fill="black"/>
<path d="M109.35 6.6202C110.935 6.6202 112.22 5.31573 112.22 3.70659C112.22 2.09744 110.935 0.792969 109.35 0.792969C107.765 0.792969 106.48 2.09744 106.48 3.70659C106.48 5.31573 107.765 6.6202 109.35 6.6202Z" fill="black"/>
<path d="M93.5528 10.4219C88.7292 10.4219 83.4297 14.0776 83.4297 20.7001C83.4297 26.7349 87.9436 30.9679 93.5423 30.9679C100.442 30.9679 103.811 25.3362 103.811 20.7384C103.811 15.0964 99.4729 10.4219 93.5528 10.4219ZM93.5686 14.5369C96.9043 14.5369 99.3924 17.2666 99.3924 20.7125C99.3924 24.2183 96.7512 26.9235 93.5785 26.9235C90.6334 26.9235 87.7705 24.49 87.7705 20.7715C87.7705 16.9909 90.4934 14.5369 93.5686 14.5369Z" fill="black"/>
</svg>
