<svg width="664" height="344" viewBox="0 0 664 344" fill="none" xmlns="http://www.w3.org/2000/svg">
<g filter="url(#filter0_d_809_15518)">
<g filter="url(#filter1_d_809_15518)">
<rect x="62" y="62" width="525" height="205" rx="30.17" fill="#039BE5"/>
<rect x="62" y="62" width="525" height="205" rx="30.17" stroke="#DFEAF2"/>
</g>
</g>
<g clip-path="url(#clip0_809_15518)">
<path d="M244.064 193.729H236.582V135.945H270.564V143.044H244.065V162.016H267.967V168.951H244.065V193.729L244.064 193.729ZM284.634 144.261C282.85 146.039 280.049 146.318 277.944 144.928C275.84 143.538 275.019 140.865 275.983 138.545C276.947 136.226 279.428 134.905 281.908 135.392C284.388 135.879 286.176 138.038 286.177 140.547C286.201 141.945 285.64 143.29 284.627 144.261H284.634ZM284.634 193.729H277.151V154.185H284.634V193.729ZM301.053 193.729H293.571V154.185H300.723V160.641H301.047C301.911 158.366 303.57 156.475 305.722 155.314C307.777 154.004 310.153 153.278 312.594 153.214C314.511 153.16 316.418 153.49 318.203 154.185L315.357 161.12C314.074 160.696 312.726 160.504 311.375 160.553C308.631 160.567 306.02 161.724 304.178 163.743C302.091 165.87 301.047 168.655 301.047 172.097L301.053 193.729ZM338.707 194.99C332.689 194.99 327.798 193 324.034 189.02C320.27 185.04 318.385 180.019 318.381 173.958C318.27 168.5 320.229 163.201 323.869 159.109C327.355 155.037 332.512 152.751 337.894 152.892C343.801 152.892 348.531 154.802 352.084 158.623C355.636 162.444 357.411 167.555 357.406 173.957L357.323 175.331H325.85C326.066 179.312 327.408 182.464 329.877 184.789C332.186 187.038 335.299 188.285 338.533 188.256C343.899 188.256 347.53 185.996 349.427 181.479L356.096 184.221C354.745 187.348 352.516 190.022 349.675 191.926C346.69 193.969 343.033 194.99 338.705 194.99L338.707 194.99ZM349.441 169.14C349.28 166.879 348.237 164.727 346.31 162.684C344.383 160.641 341.518 159.641 337.716 159.683C335.078 159.637 332.516 160.557 330.519 162.268C328.427 164.088 326.963 166.513 326.333 169.203L349.441 169.14ZM384.44 194.99C381.609 195.046 378.809 194.395 376.297 193.099C374.091 191.994 372.224 190.322 370.892 188.257H370.568V193.729H363.409V135.945H370.892V154.185L370.568 159.67H370.892C372.224 157.605 374.091 155.932 376.297 154.828C378.805 153.516 381.605 152.851 384.44 152.892C389.589 152.892 394.036 154.91 397.779 158.945C401.522 162.98 403.392 167.984 403.388 173.957C403.383 179.93 401.518 184.934 397.779 188.969C394.04 193.004 389.593 195.011 384.44 194.99ZM383.22 188.212C386.629 188.239 389.885 186.814 392.164 184.297C394.658 181.687 395.905 178.23 395.905 173.925C395.905 169.621 394.658 166.164 392.164 163.554C389.859 161.067 386.613 159.649 383.209 159.642C379.806 159.635 376.554 161.039 374.239 163.516C371.774 166.097 370.542 169.566 370.542 173.925C370.542 178.284 371.787 181.764 374.277 184.366C376.569 186.873 379.835 188.285 383.246 188.244L383.22 188.212ZM422.437 194.99C418.202 194.99 414.666 193.78 411.829 191.359C408.992 188.938 407.569 185.737 407.561 181.756C407.561 177.452 409.242 174.077 412.604 171.63C415.966 169.184 420.112 167.961 425.041 167.961C429.432 167.961 433.032 168.768 435.839 170.382V169.254C435.946 166.596 434.84 164.031 432.828 162.274C430.78 160.523 428.143 159.598 425.441 159.683C423.373 159.657 421.336 160.186 419.547 161.215C417.87 162.137 416.585 163.627 415.926 165.414L409.098 162.507C410.021 160.132 411.838 157.93 414.556 155.9C417.275 153.87 420.845 152.861 425.291 152.873C430.372 152.873 434.607 154.345 437.995 157.287C441.382 160.229 443.063 164.399 443.038 169.796V193.729H435.86V188.244H435.536C432.551 192.741 428.187 194.982 422.445 194.982L422.437 194.99ZM423.656 188.212C426.8 188.201 429.819 186.984 432.079 184.814C434.487 182.798 435.881 179.833 435.89 176.706C433.772 174.982 430.597 174.121 426.362 174.121C422.729 174.121 419.991 174.9 418.149 176.46C416.43 177.771 415.412 179.793 415.386 181.945C415.351 183.818 416.318 185.57 417.928 186.548C419.62 187.677 421.618 188.268 423.657 188.244V188.212L423.656 188.212ZM465.038 194.99C460.592 194.99 456.921 193.914 454.024 191.762C451.206 189.696 449.01 186.906 447.672 183.692L454.342 180.949C456.459 185.901 460.059 188.376 465.14 188.376C467.159 188.458 469.154 187.924 470.857 186.844C472.261 185.979 473.108 184.449 473.093 182.809C473.093 180.228 471.276 178.48 467.634 177.563L459.586 175.628C456.938 174.932 454.471 173.681 452.352 171.958C450.096 170.212 448.824 167.495 448.934 164.657C448.934 161.16 450.493 158.323 453.609 156.145C456.869 153.924 460.753 152.781 464.706 152.88C468.007 152.827 471.261 153.652 474.132 155.269C476.842 156.797 478.938 159.206 480.065 162.091L473.567 164.726C472.106 161.23 469.07 159.481 464.458 159.481C462.497 159.416 460.555 159.892 458.85 160.855C457.452 161.574 456.575 163.006 456.576 164.569C456.576 166.83 458.337 168.364 461.86 169.171L469.743 171.031C473.482 171.872 476.247 173.343 478.038 175.445C479.773 177.408 480.727 179.933 480.719 182.544C480.753 186.026 479.126 189.319 476.33 191.421C473.404 193.8 469.637 194.99 465.03 194.99L465.038 194.99ZM505.283 194.99C499.266 194.99 494.375 193 490.611 189.02C486.846 185.04 484.962 180.007 484.957 173.925C484.847 168.468 486.805 163.169 490.445 159.077C493.944 155.015 499.107 152.742 504.489 152.892C510.417 152.892 515.148 154.803 518.679 158.624C522.211 162.444 523.985 167.555 524.002 173.957L523.919 175.332H492.42C492.636 179.312 493.978 182.464 496.447 184.789C498.762 187.038 501.884 188.281 505.124 188.244C510.489 188.244 514.12 185.984 516.017 181.466L522.686 184.209C521.335 187.335 519.106 190.01 516.265 191.913C513.28 193.964 509.619 194.99 505.283 194.99L505.283 194.99ZM516.018 169.14C515.857 166.879 514.813 164.727 512.887 162.684C510.96 160.641 508.099 159.641 504.305 159.683C501.668 159.637 499.106 160.558 497.109 162.268C495.016 164.088 493.552 166.513 492.923 169.203L516.018 169.14Z" fill="white"/>
<path d="M124.711 198.166L138.47 110.125C138.638 109.045 139.478 108.194 140.555 108.011C141.632 107.828 142.706 108.354 143.221 109.318L157.45 135.857L163.122 125.058C163.561 124.223 164.427 123.701 165.37 123.701C166.314 123.701 167.18 124.223 167.619 125.058L206.018 198.165L124.711 198.166Z" fill="#FFA000"/>
<path d="M172.244 163.87L157.444 135.845L124.711 198.166L172.244 163.87Z" fill="#F57C00"/>
<path d="M206.019 198.165L195.48 132.953C195.321 132.017 194.653 131.248 193.748 130.958C192.843 130.668 191.852 130.909 191.18 131.581L124.711 198.164L161.49 218.789C163.8 220.079 166.612 220.079 168.922 218.789L206.019 198.164V198.165Z" fill="#FFCA28"/>
<path d="M195.478 132.954C195.319 132.017 194.65 131.248 193.745 130.958C192.84 130.668 191.85 130.909 191.177 131.581L177.985 144.807L167.611 125.057C167.172 124.223 166.306 123.7 165.362 123.7C164.419 123.7 163.553 124.223 163.114 125.057L157.442 135.856L143.212 109.317C142.696 108.353 141.621 107.828 140.543 108.012C139.464 108.197 138.627 109.05 138.461 110.13L124.708 198.165H124.664L124.708 198.216L125.07 198.394L191.158 132.23C191.83 131.555 192.823 131.312 193.731 131.601C194.638 131.89 195.308 132.662 195.465 133.602L205.914 198.228L206.016 198.165L195.478 132.954ZM124.829 198.044L138.467 110.753C138.633 109.672 139.472 108.819 140.55 108.635C141.628 108.45 142.703 108.976 143.219 109.94L157.448 136.479L163.119 125.681C163.558 124.846 164.424 124.323 165.368 124.323C166.311 124.323 167.177 124.846 167.617 125.681L177.78 145.01L124.829 198.044Z" fill="white" fill-opacity="0.2"/>
<path opacity="0.2" d="M168.922 218.169C166.612 219.459 163.8 219.459 161.49 218.169L124.8 197.601L124.711 198.166L161.49 218.786C163.8 220.075 166.612 220.075 168.922 218.786L206.019 198.166L205.923 197.582L168.922 218.169Z" fill="#A52714"/>
<path d="M195.377 132.967C195.219 132.031 194.553 131.262 193.651 130.973C192.749 130.685 191.762 130.925 191.092 131.596L177.945 144.815L167.608 125.075C167.17 124.24 166.307 123.718 165.367 123.718C164.427 123.718 163.564 124.24 163.126 125.075L157.474 135.869L143.295 109.341C142.78 108.378 141.709 107.852 140.635 108.037C139.561 108.221 138.725 109.074 138.56 110.154L124.855 198.15L161.506 218.76C163.807 220.049 166.61 220.049 168.912 218.76L205.879 198.15L195.377 132.967V132.967Z" fill="url(#paint0_linear_809_15518)"/>
</g>
<defs>
<filter id="filter0_d_809_15518" x="0.500003" y="0.500003" width="663.26" height="343.26" filterUnits="userSpaceOnUse" color-interpolation-filters="sRGB">
<feFlood flood-opacity="0" result="BackgroundImageFix"/>
<feColorMatrix in="SourceAlpha" type="matrix" values="0 0 0 0 0 0 0 0 0 0 0 0 0 0 0 0 0 0 127 0" result="hardAlpha"/>
<feOffset dx="7.63" dy="7.63"/>
<feGaussianBlur stdDeviation="34.315"/>
<feComposite in2="hardAlpha" operator="out"/>
<feColorMatrix type="matrix" values="0 0 0 0 0 0 0 0 0 0 0 0 0 0 0 0 0 0 0.05 0"/>
<feBlend mode="normal" in2="BackgroundImageFix" result="effect1_dropShadow_809_15518"/>
<feBlend mode="normal" in="SourceGraphic" in2="effect1_dropShadow_809_15518" result="shape"/>
</filter>
<filter id="filter1_d_809_15518" x="0.492364" y="0.492364" width="663.267" height="343.267" filterUnits="userSpaceOnUse" color-interpolation-filters="sRGB">
<feFlood flood-opacity="0" result="BackgroundImageFix"/>
<feColorMatrix in="SourceAlpha" type="matrix" values="0 0 0 0 0 0 0 0 0 0 0 0 0 0 0 0 0 0 127 0" result="hardAlpha"/>
<feOffset dx="7.62595" dy="7.62595"/>
<feGaussianBlur stdDeviation="34.3168"/>
<feColorMatrix type="matrix" values="0 0 0 0 0 0 0 0 0 0 0 0 0 0 0 0 0 0 0.05 0"/>
<feBlend mode="normal" in2="BackgroundImageFix" result="effect1_dropShadow_809_15518"/>
<feBlend mode="normal" in="SourceGraphic" in2="effect1_dropShadow_809_15518" result="shape"/>
</filter>
<linearGradient id="paint0_linear_809_15518" x1="-157.916" y1="2009.59" x2="9953.09" y2="7343.03" gradientUnits="userSpaceOnUse">
<stop stop-color="white" stop-opacity="0.1"/>
<stop offset="0.14" stop-color="white" stop-opacity="0.08"/>
<stop offset="0.61" stop-color="white" stop-opacity="0.02"/>
<stop offset="1" stop-color="white" stop-opacity="0"/>
</linearGradient>
<clipPath id="clip0_809_15518">
<rect width="400" height="112.58" fill="white" transform="translate(124 108)"/>
</clipPath>
</defs>
</svg>
