<svg width="43" height="53" viewBox="0 0 43 53" fill="none" xmlns="http://www.w3.org/2000/svg">
<path d="M31.0887 0.8125C31.2093 0.8125 31.3299 0.8125 31.4573 0.8125C31.753 4.46621 30.3584 7.19625 28.6635 9.17326C27.0005 11.1366 24.7232 13.0408 21.0399 12.7519C20.7942 9.15051 22.191 6.62294 23.8837 4.65049C25.4534 2.81226 28.3314 1.17651 31.0887 0.8125Z" fill="white"/>
<path d="M42.2383 38.8408C42.2383 38.8772 42.2383 38.9091 42.2383 38.9432C41.2032 42.0782 39.7267 44.765 37.9249 47.2585C36.28 49.5221 34.2643 52.5684 30.6652 52.5684C27.5552 52.5684 25.4895 50.5687 22.3022 50.5141C18.9306 50.4595 17.0764 52.1862 13.9938 52.6208C13.6411 52.6208 13.2885 52.6208 12.9427 52.6208C10.679 52.2931 8.85217 50.5004 7.52127 48.8851C3.59683 44.1121 0.564209 37.9468 0 30.0569C0 29.2834 0 28.5122 0 27.7387C0.238879 22.092 2.98257 17.501 6.62946 15.276C8.55414 14.093 11.2 13.0852 14.1462 13.5356C15.4088 13.7313 16.6988 14.1635 17.8295 14.5912C18.901 15.003 20.241 15.7333 21.5105 15.6946C22.3704 15.6696 23.2259 15.2214 24.0926 14.9052C26.6316 13.9883 29.1205 12.9373 32.4011 13.431C36.3437 14.027 39.142 15.7788 40.871 18.4815C37.5358 20.6041 34.8991 23.8029 35.3495 29.2652C35.7499 34.2271 38.6347 37.13 42.2383 38.8408Z" fill="white"/>
</svg>
