<svg width="31" height="32" viewBox="0 0 31 32" fill="none" xmlns="http://www.w3.org/2000/svg">
<path d="M23.5951 8.40625C22.521 8.40625 21.9831 9.70485 22.7426 10.4643C23.2134 10.9352 23.2134 11.6985 22.7426 12.1693L19.9338 14.9781C18.5303 16.3816 16.2549 16.3816 14.8515 14.9781C13.4474 13.574 11.1707 13.5748 9.76755 14.9799L3.78577 20.9697C3.2913 21.4648 3.29157 22.267 3.78637 22.7618C4.28141 23.2568 5.08403 23.2568 5.57908 22.7618L9.76568 18.5752C11.1701 17.1707 13.4472 17.1707 14.8517 18.5752C16.2553 19.9789 18.5309 19.9798 19.9356 18.5772L24.5472 13.973C25.0182 13.5027 25.7812 13.503 26.2519 13.9736C27.0116 14.7333 28.3105 14.1953 28.3105 13.121V10.6398C28.3105 9.40626 27.3105 8.40625 26.0769 8.40625H23.5951Z" fill="#00B69B"/>
</svg>
