<svg width="31" height="32" viewBox="0 0 31 32" fill="none" xmlns="http://www.w3.org/2000/svg">
<path d="M23.5795 23.6738C22.5054 23.6738 21.9675 22.3752 22.727 21.6157C23.1978 21.1449 23.1978 20.3815 22.727 19.9107L19.9182 17.1019C18.5147 15.6985 16.2393 15.6985 14.8359 17.1019C13.4318 18.506 11.1551 18.5052 9.75193 17.1002L3.77014 11.1103C3.27567 10.6152 3.27594 9.81303 3.77075 9.31823C4.26579 8.82319 5.06841 8.82319 5.56345 9.31823L9.75006 13.5048C11.1545 14.9093 13.4316 14.9093 14.836 13.5048C16.2397 12.1012 18.5152 12.1003 19.92 13.5028L24.5316 18.1071C25.0026 18.5774 25.7656 18.5771 26.2363 18.1064C26.9959 17.3467 28.2948 17.8848 28.2948 18.9591V21.4402C28.2948 22.6738 27.2948 23.6738 26.0613 23.6738H23.5795Z" fill="#F93C65"/>
</svg>
