<svg width="31" height="32" viewBox="0 0 31 32" fill="none" xmlns="http://www.w3.org/2000/svg">
<path d="M23.5756 8.41016C22.5015 8.41016 21.9636 9.70876 22.7231 10.4682C23.1939 10.9391 23.1939 11.7024 22.7231 12.1732L19.9142 14.982C18.5108 16.3855 16.2354 16.3855 14.832 14.982C13.4279 13.5779 11.1512 13.5787 9.74802 14.9838L3.76624 20.9736C3.27177 21.4688 3.27204 22.2709 3.76684 22.7657C4.26188 23.2608 5.0645 23.2608 5.55954 22.7657L9.74615 18.5791C11.1506 17.1746 13.4277 17.1746 14.8321 18.5791C16.2358 19.9828 18.5113 19.9837 19.9161 18.5811L24.5277 13.9769C24.9987 13.5066 25.7617 13.5069 26.2324 13.9775C26.992 14.7372 28.2909 14.1992 28.2909 13.1249V10.6437C28.2909 9.41017 27.2909 8.41016 26.0574 8.41016H23.5756Z" fill="#00B69B"/>
</svg>
