<svg width="24" height="24" viewBox="0 0 24 24" fill="none" xmlns="http://www.w3.org/2000/svg">
<g opacity="0.700291">
<rect opacity="0.01" width="24" height="24" fill="black"/>
<path d="M12 13C12.5523 13 13 12.5523 13 12V2C13 1.44772 12.5523 1 12 1C11.4477 1 11 1.44772 11 2V12C11 12.5523 11.4477 13 12 13Z" fill="black"/>
<path d="M16.591 3.1101C16.0994 2.85605 15.495 3.04857 15.241 3.5401C14.9869 4.03164 15.1794 4.63605 15.671 4.8901C18.9506 6.5833 20.6461 10.3004 19.7749 13.887C18.9037 17.4736 15.6919 19.9986 12.001 19.9986C8.31008 19.9986 5.09825 17.4736 4.22703 13.887C3.35581 10.3004 5.05137 6.5833 8.33097 4.8901C8.64893 4.72576 8.85507 4.40427 8.87173 4.04673C8.88839 3.68919 8.71304 3.34993 8.41173 3.15673C8.11042 2.96354 7.72893 2.94576 7.41097 3.1101C3.31253 5.22751 1.19435 9.87371 2.28388 14.3563C3.3734 18.8389 7.38788 21.9945 12.001 21.9945C16.6141 21.9945 20.6285 18.8389 21.7181 14.3563C22.8076 9.87371 20.6894 5.22751 16.591 3.1101Z" fill="black"/>
</g>
</svg>
