<svg width="37" height="37" viewBox="0 0 37 37" fill="none" xmlns="http://www.w3.org/2000/svg">
<path d="M18.5868 36.369C28.4076 36.369 36.369 28.4076 36.369 18.5868C36.369 8.76595 28.4076 0.804591 18.5868 0.804591C8.76595 0.804591 0.804591 8.76595 0.804591 18.5868C0.804591 28.4076 8.76595 36.369 18.5868 36.369Z" stroke="#5C5C5C" stroke-width="0.390817"/>
<path d="M18.5888 20.1353L14.1562 14.9639C13.8292 14.5823 13.2989 14.5823 12.9719 14.9639C12.6448 15.3455 12.6448 15.9641 12.9719 16.3457L17.9966 22.2079C18.3237 22.5895 18.854 22.5895 19.181 22.2079L24.2058 16.3457C24.5328 15.9641 24.5328 15.3455 24.2058 14.9639C23.8787 14.5823 23.3485 14.5823 23.0214 14.9639L18.5888 20.1353Z" fill="#565656"/>
<mask id="mask0_809_15124" style="mask-type:luminance" maskUnits="userSpaceOnUse" x="12" y="14" width="13" height="9">
<path d="M18.5888 20.1353L14.1562 14.9639C13.8292 14.5823 13.2989 14.5823 12.9719 14.9639C12.6448 15.3455 12.6448 15.9641 12.9719 16.3457L17.9966 22.2079C18.3237 22.5895 18.854 22.5895 19.181 22.2079L24.2058 16.3457C24.5328 15.9641 24.5328 15.3455 24.2058 14.9639C23.8787 14.5823 23.3485 14.5823 23.0214 14.9639L18.5888 20.1353Z" fill="white"/>
</mask>
<g mask="url(#mask0_809_15124)">
</g>
</svg>
