<svg width="24" height="24" viewBox="0 0 24 24" fill="none" xmlns="http://www.w3.org/2000/svg">
<g opacity="0.300291">
<rect opacity="0.01" x="24" y="24" width="24" height="24" transform="rotate(180 24 24)" fill="black"/>
<path d="M3.24127 7.2904L11.7613 11.9204C11.9113 12.0004 12.0913 12.0004 12.2413 11.9204L20.7613 7.2904C20.9202 7.21191 21.0165 7.0457 21.0056 6.86877C20.9947 6.69184 20.8787 6.53874 20.7113 6.4804L12.1913 3.0004C12.0695 2.95039 11.933 2.95039 11.8113 3.0004L3.29127 6.4804C3.12388 6.53874 3.00786 6.69184 2.99693 6.86877C2.98601 7.0457 3.08233 7.21191 3.24127 7.2904Z" fill="black"/>
<path d="M20.7081 10.6599L18.8781 9.87988L12.2381 13.4899C12.0881 13.5699 11.9081 13.5699 11.7581 13.4899L5.11815 9.87988L3.28815 10.6599C3.13019 10.7428 3.03125 10.9065 3.03125 11.0849C3.03125 11.2633 3.13019 11.427 3.28815 11.5099L11.8081 16.4099C11.9555 16.5 12.1408 16.5 12.2881 16.4099L20.8081 11.5099C20.9586 11.4098 21.04 11.2337 21.0189 11.0542C20.9978 10.8747 20.8777 10.7224 20.7081 10.6599Z" fill="black"/>
<path d="M20.7118 15.0999L19.1518 14.4199L12.2418 18.1799C12.0918 18.2599 11.9118 18.2599 11.7618 18.1799L4.85179 14.4199L3.29179 15.0999C3.12932 15.1842 3.02734 15.3519 3.02734 15.5349C3.02734 15.7179 3.12932 15.8857 3.29179 15.9699L11.8118 20.9699C11.9618 21.0499 12.1418 21.0499 12.2918 20.9699L20.8118 15.9699C20.9668 15.8684 21.0512 15.6881 21.0301 15.5041C21.0089 15.32 20.8858 15.1636 20.7118 15.0999Z" fill="black"/>
</g>
</svg>
