<svg width="24" height="24" viewBox="0 0 24 24" fill="none" xmlns="http://www.w3.org/2000/svg">
<g opacity="0.300291">
<rect opacity="0.01" width="24" height="24" fill="black"/>
<path d="M11.25 11.8304L3 8.36035V16.0904C3.00888 16.7485 3.3991 17.3417 4 17.6104L11.19 21.0004H11.25V11.8304Z" fill="black"/>
<path d="M11.9983 10.4998L20.5083 6.92976C20.3651 6.77064 20.1917 6.64149 19.9983 6.54976L12.7983 3.17976C12.2919 2.94008 11.7047 2.94008 11.1983 3.17976L3.99828 6.54976C3.80484 6.64149 3.6315 6.77064 3.48828 6.92976L11.9983 10.4998Z" fill="black"/>
<path d="M12.75 11.8304V21.0004H12.8L20 17.6104C20.5977 17.3432 20.9873 16.7549 21 16.1004V8.36035L12.75 11.8304Z" fill="black"/>
</g>
</svg>
