<svg width="54" height="57" viewBox="0 0 54 57" fill="none" xmlns="http://www.w3.org/2000/svg">
<g filter="url(#filter0_i_809_15550)">
<path d="M0.793071 30.1434L19.9192 10.9785L19.9192 7.38503L24.7007 2.5938L24.7007 28.9456L19.9192 28.9456L19.9192 17.5664L7.36766 30.1434L19.9192 42.1215L19.9192 28.9456L24.7007 28.9456L24.7007 46.9127L27.0914 49.3083L29.4822 46.9127L29.4822 28.9456H34.2637L34.2637 42.1215L46.8152 30.1434L34.2637 17.5664L34.2637 28.9456H29.4822L29.4822 0.198186L34.2637 4.98942L34.2637 10.9785L53.3898 30.1434L27.0915 56.4952L0.793071 30.1434Z" fill="black"/>
</g>
<path d="M33.9961 11.2466L52.8545 30.1434L27.0915 55.9588L1.32836 30.1434L20.1868 11.2466L20.2977 11.1356L20.2977 10.9785L20.2977 7.54213L24.3222 3.50944L24.3222 28.5663L20.2977 28.5663L20.2977 17.5664L20.2977 16.6508L19.6515 17.2982L7.10002 29.8752L6.82577 30.15L7.10663 30.418L19.6581 42.3961L20.2977 43.0064L20.2977 42.1215L20.2977 29.3249L24.3222 29.3249L24.3222 46.9127L24.3222 47.0698L24.433 47.1809L26.8238 49.5765L27.0914 49.8447L27.3591 49.5765L29.7498 47.1809L29.8607 47.0698V46.9127L29.8607 29.3249H33.8852L33.8852 42.1215L33.8852 43.0064L34.5248 42.3961L47.0763 30.418L47.3571 30.15L47.0829 29.8752L34.5314 17.2982L33.8852 16.6508V17.5664L33.8852 28.5663H29.8607L29.8607 1.11383L33.8852 5.14651L33.8852 10.9785V11.1356L33.9961 11.2466Z" stroke="black" stroke-width="0.757775"/>
<defs>
<filter id="filter0_i_809_15550" x="0.792969" y="0.198242" width="52.5977" height="59.7294" filterUnits="userSpaceOnUse" color-interpolation-filters="sRGB">
<feFlood flood-opacity="0" result="BackgroundImageFix"/>
<feBlend mode="normal" in="SourceGraphic" in2="BackgroundImageFix" result="shape"/>
<feColorMatrix in="SourceAlpha" type="matrix" values="0 0 0 0 0 0 0 0 0 0 0 0 0 0 0 0 0 0 127 0" result="hardAlpha"/>
<feOffset dy="3.43253"/>
<feGaussianBlur stdDeviation="1.71626"/>
<feComposite in2="hardAlpha" operator="arithmetic" k2="-1" k3="1"/>
<feColorMatrix type="matrix" values="0 0 0 0 0 0 0 0 0 0 0 0 0 0 0 0 0 0 0.25 0"/>
<feBlend mode="normal" in2="shape" result="effect1_innerShadow_809_15550"/>
</filter>
</defs>
</svg>
