<svg width="335" height="344" viewBox="0 0 335 344" fill="none" xmlns="http://www.w3.org/2000/svg">
<g filter="url(#filter0_d_809_15538)">
<g filter="url(#filter1_d_809_15538)">
<rect x="62" y="62" width="227.411" height="205" rx="30.2246" fill="white"/>
</g>
<path d="M172.723 87.161C174.163 87.041 175.563 87.001 177.003 87.001C203.042 87.961 223.962 108.841 225.002 134.881V174.2C224.962 181.32 219.162 187.04 212.082 187C205.602 186 200.642 180.72 200.042 174.2V134.881C198.962 121.161 186.962 110.881 173.243 111.961C173.083 111.961 172.923 112.001 172.763 112.001" fill="#FBBC04"/>
<path d="M224.999 174.48C224.999 181.36 219.399 186.96 212.519 186.96C205.639 186.96 200.039 181.36 200.039 174.48C200.039 167.6 205.639 162 212.519 162C219.399 162 224.999 167.6 224.999 174.48Z" fill="#4285F4"/>
<path d="M173.439 186.56C180.519 186.64 186.319 181 186.399 173.92C186.399 173.88 186.399 173.88 186.399 173.84C186.199 166.96 180.439 161.52 173.559 161.72C173.479 161.72 173.359 161.72 173.279 161.72C159.639 160.68 149.36 148.841 150.319 135.161V134.961C151.319 122.641 161.119 112.921 173.439 112.001C180.319 112.281 186.119 106.921 186.399 100.041C186.399 99.9609 186.399 99.9209 186.399 99.8409C186.319 92.7609 180.519 87.0409 173.439 87.1209H172.559C146.04 88.3609 125.16 110.121 125 136.681V136.881C125 168.04 152.319 186.6 172.679 186.6H173.439V186.56Z" fill="#EA4335"/>
<path fill-rule="evenodd" clip-rule="evenodd" d="M112 238.025L122.95 209H127.175L138.125 238.025H134L131.2 230.15H119L116.125 238.025H112ZM120.225 226.675H129.875L125.125 213.575H124.975L120.225 226.675ZM148.375 238.675C145.8 238.675 143.6 237.65 141.725 235.625C139.85 233.6 138.925 231.075 138.925 228.075C138.925 225.075 139.85 222.55 141.725 220.525C143.6 218.5 145.8 217.475 148.375 217.475C149.9 217.475 151.25 217.8 152.45 218.45C153.65 219.1 154.55 219.9 155.15 220.875H155.3L155.15 218.125V209H158.875V238.025H155.3V235.275H155.15C154.55 236.25 153.65 237.05 152.45 237.7C151.25 238.35 149.9 238.675 148.375 238.675ZM149 235.25C150.75 235.25 152.25 234.6 153.475 233.3C154.7 232 155.325 230.25 155.325 228.075C155.325 225.9 154.7 224.15 153.475 222.85C152.25 221.55 150.75 220.9 149 220.9C147.275 220.9 145.775 221.55 144.55 222.875C143.3 224.175 142.675 225.925 142.675 228.075C142.675 230.225 143.3 231.975 144.55 233.275C145.775 234.6 147.275 235.25 149 235.25ZM163.9 238.025V209H167.625L177.725 226.675H177.875L187.975 209H191.7V238.025H187.975V220.8L188.125 215.925H187.975L178.9 231.85H176.7L167.625 215.925H167.475L167.625 220.8V238.025H163.9ZM198.45 220.55C200.375 218.525 202.825 217.5 205.8 217.5C208.775 217.5 211.225 218.5 213.15 220.525C215.075 222.55 216.025 225.05 216.025 228.075C216.025 231.1 215.075 233.625 213.15 235.625C211.225 237.65 208.775 238.65 205.8 238.65C202.825 238.65 200.375 237.65 198.45 235.625C196.525 233.6 195.575 231.1 195.575 228.075C195.575 225.05 196.525 222.55 198.45 220.55ZM201.2 233.325C202.5 234.625 204.025 235.275 205.775 235.275C207.525 235.275 209.05 234.625 210.325 233.3C211.6 232 212.25 230.25 212.25 228.1C212.25 225.95 211.6 224.2 210.325 222.9C209.05 221.6 207.525 220.925 205.775 220.925C204.025 220.925 202.5 221.575 201.225 222.9C199.95 224.2 199.3 225.95 199.3 228.1C199.3 230.25 199.95 232 201.2 233.325ZM229.725 238.675C228.2 238.675 226.85 238.35 225.65 237.7C224.45 237.05 223.55 236.25 222.95 235.275H222.8V238.025H219.225V209H222.95V218.15L222.8 220.9H222.95C223.55 219.925 224.45 219.125 225.65 218.475C226.85 217.825 228.2 217.5 229.725 217.5C232.3 217.5 234.5 218.525 236.375 220.55C238.25 222.575 239.175 225.1 239.175 228.1C239.175 231.1 238.25 233.625 236.375 235.65C234.5 237.65 232.3 238.675 229.725 238.675ZM229.125 235.25C230.85 235.25 232.35 234.6 233.575 233.275C234.825 231.975 235.45 230.225 235.45 228.075C235.45 225.925 234.825 224.175 233.575 222.875C232.325 221.575 230.85 220.9 229.125 220.9C227.375 220.9 225.875 221.55 224.65 222.85C223.425 224.15 222.8 225.9 222.8 228.075C222.8 230.25 223.425 232 224.65 233.3C225.875 234.6 227.375 235.25 229.125 235.25Z" fill="#5F6368"/>
</g>
<defs>
<filter id="filter0_d_809_15538" x="1" y="1" width="364.67" height="342.26" filterUnits="userSpaceOnUse" color-interpolation-filters="sRGB">
<feFlood flood-opacity="0" result="BackgroundImageFix"/>
<feColorMatrix in="SourceAlpha" type="matrix" values="0 0 0 0 0 0 0 0 0 0 0 0 0 0 0 0 0 0 127 0" result="hardAlpha"/>
<feOffset dx="7.63" dy="7.63"/>
<feGaussianBlur stdDeviation="34.315"/>
<feComposite in2="hardAlpha" operator="out"/>
<feColorMatrix type="matrix" values="0 0 0 0 0 0 0 0 0 0 0 0 0 0 0 0 0 0 0.05 0"/>
<feBlend mode="normal" in2="BackgroundImageFix" result="effect1_dropShadow_809_15538"/>
<feBlend mode="normal" in="SourceGraphic" in2="effect1_dropShadow_809_15538" result="shape"/>
</filter>
<filter id="filter1_d_809_15538" x="0.881979" y="0.881979" width="364.926" height="342.516" filterUnits="userSpaceOnUse" color-interpolation-filters="sRGB">
<feFlood flood-opacity="0" result="BackgroundImageFix"/>
<feColorMatrix in="SourceAlpha" type="matrix" values="0 0 0 0 0 0 0 0 0 0 0 0 0 0 0 0 0 0 127 0" result="hardAlpha"/>
<feOffset dx="7.63975" dy="7.63975"/>
<feGaussianBlur stdDeviation="34.3789"/>
<feColorMatrix type="matrix" values="0 0 0 0 0 0 0 0 0 0 0 0 0 0 0 0 0 0 0.05 0"/>
<feBlend mode="normal" in2="BackgroundImageFix" result="effect1_dropShadow_809_15538"/>
<feBlend mode="normal" in="SourceGraphic" in2="effect1_dropShadow_809_15538" result="shape"/>
</filter>
</defs>
</svg>
