<svg width="111" height="109" viewBox="0 0 111 109" fill="none" xmlns="http://www.w3.org/2000/svg">
<g filter="url(#filter0_i_809_15534)">
<path fill-rule="evenodd" clip-rule="evenodd" d="M55.5 0C24.8363 0 0 24.8363 0 55.5C0 80.0587 15.8869 100.802 37.9481 108.156C40.7231 108.641 41.7637 106.976 41.7637 105.519C41.7637 104.201 41.6944 99.8306 41.6944 95.1825C27.75 97.7494 24.1425 91.7831 23.0325 88.6612C22.4081 87.0656 19.7025 82.14 17.3438 80.8219C15.4012 79.7812 12.6263 77.2144 17.2744 77.145C21.645 77.0756 24.7669 81.1687 25.8075 82.8337C30.8025 91.2281 38.7806 88.8694 41.9719 87.4125C42.4575 83.805 43.9144 81.3769 45.51 79.9894C33.1613 78.6019 20.2575 73.815 20.2575 52.5863C20.2575 46.5506 22.4081 41.5556 25.9463 37.6706C25.3913 36.2831 23.4487 30.5944 26.5012 22.9631C26.5012 22.9631 31.1494 21.5063 41.7637 28.6519C46.2038 27.4031 50.9213 26.7787 55.6388 26.7787C60.3563 26.7787 65.0738 27.4031 69.5138 28.6519C80.1281 21.4369 84.7763 22.9631 84.7763 22.9631C87.8288 30.5944 85.8863 36.2831 85.3313 37.6706C88.8694 41.5556 91.02 46.4813 91.02 52.5863C91.02 73.8844 78.0469 78.6019 65.6981 79.9894C67.71 81.7237 69.4444 85.0537 69.4444 90.2569C69.4444 97.68 69.375 103.646 69.375 105.519C69.375 106.976 70.4156 108.711 73.1906 108.156C95.1131 100.802 111 79.9894 111 55.5C111 24.8363 86.1637 0 55.5 0Z" fill="white"/>
</g>
<path d="M27.2791 94.5392C30.1206 96.1326 34.4617 96.9727 41.1398 95.844C41.1427 97.9345 41.1584 99.9407 41.1741 101.605C41.1794 102.168 41.1847 102.692 41.1895 103.166C41.2004 104.243 41.2087 105.064 41.2087 105.519C41.2087 106.126 40.9915 106.74 40.5286 107.15C40.0835 107.545 39.3261 107.825 38.0837 107.616C16.2626 100.323 0.555 79.7975 0.555 55.5C0.555 25.1428 25.1428 0.555 55.5 0.555C85.8572 0.555 110.445 25.1428 110.445 55.5C110.445 79.7314 94.7335 100.328 73.048 107.618C71.8089 107.858 71.0564 107.578 70.6135 107.179C70.149 106.761 69.93 106.129 69.93 105.519C69.93 104.895 69.9377 103.814 69.948 102.373C69.9532 101.658 69.9589 100.854 69.9647 99.973C69.982 97.3188 69.9994 93.9701 69.9994 90.2569C69.9994 85.6428 68.6647 82.399 66.9021 80.403C72.7518 79.6452 78.7325 78.0496 83.3465 74.1795C88.2885 70.0344 91.575 63.3568 91.575 52.5863C91.575 46.4703 89.4618 41.4955 85.9709 37.5523C86.66 35.6751 88.2206 30.0797 85.2916 22.757L85.1954 22.5166L84.9494 22.4358L84.7763 22.9631C84.9494 22.4358 84.9488 22.4356 84.9483 22.4355L84.947 22.4351L84.9443 22.4342L84.9374 22.432L84.9184 22.4263C84.9035 22.4219 84.8839 22.4165 84.8596 22.4102C84.8111 22.3977 84.7439 22.3822 84.6578 22.3661C84.4855 22.3339 84.2377 22.2995 83.9121 22.2831C83.2605 22.2502 82.3002 22.2893 81.0118 22.5586C78.4704 23.0899 74.6572 24.5161 69.4153 28.0484C64.9967 26.8313 60.3165 26.2237 55.6388 26.2237C50.9605 26.2237 46.2797 26.8315 41.8608 28.0488C36.6191 24.5502 32.807 23.1248 30.2675 22.585C28.9802 22.3114 28.021 22.2657 27.3704 22.2926C27.0453 22.3061 26.7979 22.3377 26.626 22.3678C26.5401 22.3828 26.473 22.3975 26.4247 22.4093C26.4005 22.4152 26.381 22.4203 26.3661 22.4245L26.3472 22.4299L26.3404 22.432L26.3376 22.4328L26.3364 22.4332C26.3358 22.4334 26.3353 22.4335 26.5012 22.9631L26.3353 22.4335L26.0838 22.5123L25.9859 22.757C23.0568 30.0798 24.6175 35.6752 25.3067 37.5523C21.8151 41.499 19.7025 46.5391 19.7025 52.5863C19.7025 63.3217 22.9714 69.9987 27.8951 74.1525C32.494 78.0323 38.4606 79.6439 44.3112 80.4034C43.0039 81.8918 41.9144 84.0846 41.4661 87.0301C39.8821 87.7166 37.3348 88.5146 34.6169 88.2647C31.772 88.0031 28.6891 86.5911 26.2845 82.5499L26.2846 82.5499L26.2781 82.5396C25.7387 81.6766 24.6622 80.186 23.1465 78.9139C21.6318 77.6426 19.6329 76.5525 17.2656 76.5901C16.09 76.6077 15.2361 76.778 14.7226 77.1551C14.4436 77.36 14.2534 77.6353 14.1949 77.9685C14.139 78.2867 14.2149 78.5912 14.3325 78.8493C14.5621 79.3532 15.0223 79.8383 15.5022 80.2426C15.9931 80.6561 16.5613 81.0319 17.077 81.3086C17.587 81.5945 18.1486 82.0961 18.7244 82.7464C19.2967 83.3928 19.8596 84.159 20.3748 84.9424C21.4055 86.5097 22.2155 88.0998 22.5126 88.8557C23.0963 90.4934 24.3444 92.8936 27.2791 94.5392Z" stroke="white" stroke-width="1.11"/>
<defs>
<filter id="filter0_i_809_15534" x="0" y="0" width="111" height="112.702" filterUnits="userSpaceOnUse" color-interpolation-filters="sRGB">
<feFlood flood-opacity="0" result="BackgroundImageFix"/>
<feBlend mode="normal" in="SourceGraphic" in2="BackgroundImageFix" result="shape"/>
<feColorMatrix in="SourceAlpha" type="matrix" values="0 0 0 0 0 0 0 0 0 0 0 0 0 0 0 0 0 0 127 0" result="hardAlpha"/>
<feOffset dy="4.44"/>
<feGaussianBlur stdDeviation="2.775"/>
<feComposite in2="hardAlpha" operator="arithmetic" k2="-1" k3="1"/>
<feColorMatrix type="matrix" values="0 0 0 0 0 0 0 0 0 0 0 0 0 0 0 0 0 0 0.25 0"/>
<feBlend mode="normal" in2="shape" result="effect1_innerShadow_809_15534"/>
</filter>
</defs>
</svg>
