<svg width="62" height="31" viewBox="0 0 62 31" fill="none" xmlns="http://www.w3.org/2000/svg">
<path d="M1.15551 30.4822H6.14535V9.07659H1.15551V30.4822ZM3.64043 6.26945C5.20352 6.26945 6.42592 5.05778 6.42592 3.54327C6.42592 2.00849 5.20352 0.796875 3.64043 0.796875C2.0974 0.796875 0.875 2.00855 0.875 3.54327C0.875 5.05783 2.0974 6.26945 3.64043 6.26945ZM22.7588 0.857309C14.3223 0.857309 9.03164 6.65304 9.03164 15.9223C9.03164 25.1915 14.3218 30.9671 22.7588 30.9671C31.1752 30.9671 36.4659 25.1915 36.4659 15.9223C36.4659 6.65304 31.1757 0.857309 22.7588 0.857309ZM22.7588 5.30003C27.9089 5.30003 31.1952 9.41965 31.1952 15.9222C31.1952 22.4045 27.9088 26.5242 22.7588 26.5242C17.5886 26.5242 14.3223 22.4046 14.3223 15.9222C14.3223 9.41976 17.5887 5.30003 22.7588 5.30003ZM38.5707 22.2835C38.7912 27.6553 43.1598 30.967 49.8128 30.967C56.8067 30.967 61.2155 27.4936 61.2155 21.9604C61.2155 17.6187 58.7306 15.1752 52.8591 13.8223L49.5325 13.0549C45.9855 12.2067 44.5227 11.0759 44.5227 9.13723C44.5227 6.71394 46.727 5.09842 49.9934 5.09842C53.2999 5.09842 55.5642 6.73416 55.8048 9.46034H60.7345C60.6142 4.33103 56.406 0.857464 50.0336 0.857464C43.741 0.857464 39.2722 4.35103 39.2722 9.52082C39.2722 13.6808 41.7972 16.2657 47.1274 17.4976L50.8748 18.3862C54.522 19.2546 56.0049 20.4662 56.0049 22.5664C56.0049 24.9897 53.5801 26.7264 50.0935 26.7264C46.5665 26.7264 43.9015 24.9695 43.5808 22.2836L38.5707 22.2835Z" fill="white"/>
</svg>
